<svg xmlns="http://www.w3.org/2000/svg" enable-background="new 0 0 80 80" viewBox="0 0 80 80"><linearGradient id="a" x1="60.989" x2="60.989" y1="36.738" y2="31.878" gradientUnits="userSpaceOnUse"><stop offset="0" stop-color="#fff"/><stop offset="1" stop-color="#f1f5fd"/></linearGradient><path fill="url(#a)" d="M69,36.8H53c0,0,0,0,0,0c0-1.3,1-2.3,2.3-2.3c0.3,0,0.5,0,0.7,0.1c0.6-1.7,2.2-3,4.1-3
		c1.8,0,3.3,1,4,2.5c0.5-0.3,1-0.4,1.6-0.4C67.5,33.7,68.9,35.1,69,36.8z"/><linearGradient id="b" x1="14.05" x2="14.05" y1="22.303" y2="18.711" gradientUnits="userSpaceOnUse"><stop offset="0" stop-color="#fff"/><stop offset="1" stop-color="#f1f5fd"/></linearGradient><path fill="url(#b)" d="M20,22.4H8.1c0,0,0,0,0,0c0-0.9,0.8-1.7,1.7-1.7c0.2,0,0.4,0,0.5,0.1c0.4-1.3,1.6-2.2,3-2.2
		c1.3,0,2.4,0.8,2.9,1.9c0.4-0.2,0.8-0.3,1.2-0.3C18.8,20.1,19.9,21.1,20,22.4z"/><linearGradient id="c" x1="1325.469" x2="1326.906" y1="-977.927" y2="-973.176" gradientTransform="matrix(1.4892 1.0342 -1.0686 1.3617 -2962.03 2.522)" gradientUnits="userSpaceOnUse"><stop offset="0" stop-color="#64c2e1"/><stop offset="1" stop-color="#1897b5"/></linearGradient><path fill="url(#c)" d="M57.6,47.7c-1.6,3.5-5.4,8.8-6.8,8.2c-1.4-0.6,0.2-6.9,1.8-10.4c1.6-3.5,3.4-4.4,4.8-3.8
			C58.8,42.3,59.2,44.2,57.6,47.7z"/><linearGradient id="d" x1="1329.389" x2="1327.673" y1="-976.923" y2="-969.251" gradientTransform="matrix(1.4892 1.0342 -1.0686 1.3617 -2962.03 2.522)" gradientUnits="userSpaceOnUse"><stop offset="0" stop-color="#64c2e1"/><stop offset="1" stop-color="#1897b5"/></linearGradient><path fill="url(#d)" d="M56.4,48.4c-2.7,2.2-6.5,6.6-5.6,7.6c0.9,1,6.1-1.9,8.8-4.1s3.1-3.8,2.2-4.8
			C61,46.1,59.1,46.2,56.4,48.4z"/><linearGradient id="e" x1="3005.76" x2="3006.5" y1="-2249.259" y2="-2246.81" gradientTransform="matrix(-1.4892 1.0342 1.0686 1.3617 6903.889 2.522)" gradientUnits="userSpaceOnUse"><stop offset="0" stop-color="#f099dd"/><stop offset="1" stop-color="#d34ac0"/></linearGradient><path fill="url(#e)" d="M23.7,51.5c0.8,1.8,2.8,4.5,3.5,4.2s-0.1-3.6-0.9-5.3s-1.7-2.3-2.5-2
			C23.1,48.7,22.9,49.7,23.7,51.5z"/><linearGradient id="f" x1="3007.78" x2="3006.896" y1="-2248.741" y2="-2244.787" gradientTransform="matrix(-1.4892 1.0342 1.0686 1.3617 6903.889 2.522)" gradientUnits="userSpaceOnUse"><stop offset="0" stop-color="#f099dd"/><stop offset="1" stop-color="#d34ac0"/></linearGradient><path fill="url(#f)" d="M24.3,51.8c1.4,1.1,3.4,3.4,2.9,3.9c-0.5,0.5-3.2-1-4.6-2.1c-1.4-1.1-1.6-2-1.1-2.5
			C22,50.6,22.9,50.7,24.3,51.8z"/><path fill="#F1F5FD" d="M5.7,54.4c1,2.9,16,5.2,34.3,5.2s33.3-2.3,34.3-5.2H5.7z"/><linearGradient id="g" x1="29.765" x2="35.926" y1="17.11" y2="34.703" gradientUnits="userSpaceOnUse"><stop offset="0" stop-color="#f1f5fd"/><stop offset="1" stop-color="#aac8f9"/></linearGradient><polygon fill="url(#g)" points="43.7 42.2 43.7 13.9 28.2 13.9 28.2 18.6 23.5 18.6 23.5 42.2"/><linearGradient id="h" x1="25.774" x2="28.477" y1="16.186" y2="18.889" gradientUnits="userSpaceOnUse"><stop offset="0" stop-color="#f1f5fd"/><stop offset="1" stop-color="#aac8f9"/></linearGradient><polygon fill="url(#h)" points="28.2 13.9 23.5 18.6 28.2 18.6"/><path fill="#FFF" d="M27,20.9v3.1h3.1v-3.1H27z M29.7,23.6h-2.1v-2.1h2.1V23.6z"/><path fill="#FFF" d="M27,26v3.1h3.1V26H27z M29.7,28.6h-2.1v-2.1h2.1V28.6z"/><path fill="#FFF" d="M27,31.1v3.1h3.1v-3.1H27z M29.7,33.7h-2.1v-2.1h2.1V33.7z"/><path fill="#FFF" d="M27,36.1v3.1h3.1v-3.1H27z M29.7,38.7h-2.1v-2.1h2.1V38.7z"/><rect width="7.8" height=".5" x="32.3" y="21.7" fill="#FFF"/><rect width="5.8" height=".5" x="32.3" y="22.9" fill="#FFF"/><rect width="7.8" height=".5" x="32.3" y="26.7" fill="#FFF"/><rect width="5.8" height=".5" x="32.3" y="28" fill="#FFF"/><rect width="7.8" height=".5" x="32.3" y="31.8" fill="#FFF"/><rect width="5.8" height=".5" x="32.3" y="33" fill="#FFF"/><rect width="7.8" height=".5" x="32.3" y="36.8" fill="#FFF"/><rect width="5.8" height=".5" x="32.3" y="38.1" fill="#FFF"/><linearGradient id="i" x1="27.94" x2="30.873" y1="22.122" y2="22.122" gradientUnits="userSpaceOnUse"><stop offset="0" stop-color="#9bf"/><stop offset="1" stop-color="#5a88f9"/></linearGradient><path fill="url(#i)" d="M30.6,21.1l0.2,0.2c0.1,0.1,0.1,0.2,0,0.3l-1.7,1.7c-0.1,0.1-0.2,0.1-0.3,0L28,22.4
			c-0.1-0.1-0.1-0.2,0-0.3l0.2-0.2c0.1-0.1,0.2-0.1,0.3,0l0.5,0.5l1.4-1.4C30.4,21,30.6,21,30.6,21.1z"/><linearGradient id="j" x1="27.94" x2="30.873" y1="26.951" y2="26.951" gradientUnits="userSpaceOnUse"><stop offset="0" stop-color="#9bf"/><stop offset="1" stop-color="#5a88f9"/></linearGradient><path fill="url(#j)" d="M30.6,25.9l0.2,0.2c0.1,0.1,0.1,0.2,0,0.3L29.1,28c-0.1,0.1-0.2,0.1-0.3,0L28,27.2
			c-0.1-0.1-0.1-0.2,0-0.3l0.2-0.2c0.1-0.1,0.2-0.1,0.3,0l0.5,0.5l1.4-1.4C30.4,25.8,30.6,25.8,30.6,25.9z"/><linearGradient id="k" x1="27.94" x2="30.873" y1="37.305" y2="37.305" gradientUnits="userSpaceOnUse"><stop offset="0" stop-color="#9bf"/><stop offset="1" stop-color="#5a88f9"/></linearGradient><path fill="url(#k)" d="M30.6,36.2l0.2,0.2c0.1,0.1,0.1,0.2,0,0.3l-1.7,1.7c-0.1,0.1-0.2,0.1-0.3,0L28,37.5
			c-0.1-0.1-0.1-0.2,0-0.3l0.2-0.2c0.1-0.1,0.2-0.1,0.3,0l0.5,0.5l1.4-1.4C30.4,36.2,30.6,36.2,30.6,36.2z"/><g><polygon fill="#D1DAE8" points="35.5 25.4 34.9 24.5 36.3 22.5 46.8 15.8 48.4 18.3 37.9 25"/><polygon fill="#DFE5F2" points="35.2 24.9 47.6 17 48.4 18.3 37.9 25 35.5 25.4"/><polygon fill="#EEF4FF" points="35.1 24.8 36.7 23.4 47.3 16.6 47.9 17.5 37.2 24.2 35.3 25.1"/><linearGradient id="l" x1="37.235" x2="48.417" y1="21.23" y2="21.23" gradientUnits="userSpaceOnUse"><stop offset="0" stop-color="#99a9fa"/><stop offset="1" stop-color="#797efc"/></linearGradient><path fill="url(#l)" d="M37.2,24.2l10.6-6.8l0.5,0.8L37.9,25C37.9,24.6,37.6,24.4,37.2,24.2z"/><path fill="#B9C4FC" d="M36.7,23.4l10.6-6.8l0.5,0.8l-10.6,6.8C37.3,23.8,37.1,23.5,36.7,23.4z"/><linearGradient id="m" x1="36.293" x2="47.349" y1="19.595" y2="19.595" gradientUnits="userSpaceOnUse"><stop offset="0" stop-color="#99a9fa"/><stop offset="1" stop-color="#797efc"/></linearGradient><path fill="url(#m)" d="M36.3,22.5l10.5-6.7l0.5,0.8l-10.6,6.8C36.7,23,36.7,22.6,36.3,22.5z"/><rect width="3" height=".6" x="46.4" y="16.6" fill="#244D77" transform="rotate(-122.52 47.873 16.875)"/><linearGradient id="n" x1="-9943.531" x2="-9940.551" y1="-5464.171" y2="-5464.171" gradientTransform="scale(-1 1) rotate(-57.48 1.086 -11744.012)" gradientUnits="userSpaceOnUse"><stop offset="0" stop-color="#416d99"/><stop offset="1" stop-color="#244d77"/></linearGradient><path fill="url(#n)" d="M47.8,15.1c1-0.6,2.6,1.9,1.6,2.5L48.9,18l-1.6-2.5L47.8,15.1z"/><path fill="#244D77" d="M35.1,24.3l-0.5,0.8c-0.1,0.2,0,0.4,0.3,0.4l0.9-0.1L35.1,24.3z"/></g><g><linearGradient id="o" x1="39.664" x2="54.297" y1="37.107" y2="51.74" gradientUnits="userSpaceOnUse"><stop offset="0" stop-color="#416d99"/><stop offset="1" stop-color="#244d77"/></linearGradient><path fill="url(#o)" d="M51.1,54.1H40.4c-1.3,0-2.3-1-2.3-2.3V34.5c0-1.3,1-2.3,2.3-2.3h10.7c1.3,0,2.3,1,2.3,2.3v17.3
			C53.4,53.1,52.4,54.1,51.1,54.1z"/><linearGradient id="p" x1="39.94" x2="51.774" y1="34.551" y2="37.924" gradientUnits="userSpaceOnUse"><stop offset="0" stop-color="#9bf"/><stop offset="1" stop-color="#5a88f9"/></linearGradient><path fill="url(#p)" d="M51.6,38H39.8c-0.2,0-0.4-0.2-0.4-0.4v-2.9c0-0.2,0.2-0.4,0.4-0.4h11.8c0.2,0,0.4,0.2,0.4,0.4v2.9
			C52,37.9,51.8,38,51.6,38z"/><linearGradient id="q" x1="39.682" x2="47.503" y1="39.859" y2="47.68" gradientUnits="userSpaceOnUse"><stop offset="0" stop-color="#ff7bc0"/><stop offset="1" stop-color="#ef2991"/></linearGradient><path fill="url(#q)" d="M41.3,41.9h-1.4c-0.2,0-0.4-0.2-0.4-0.4v-1.4c0-0.2,0.2-0.4,0.4-0.4h1.4c0.2,0,0.4,0.2,0.4,0.4
				v1.4C41.7,41.7,41.6,41.9,41.3,41.9z"/><linearGradient id="r" x1="41.387" x2="49.209" y1="38.153" y2="45.975" gradientUnits="userSpaceOnUse"><stop offset="0" stop-color="#eef4ff"/><stop offset="1" stop-color="#d1dae8"/></linearGradient><path fill="url(#r)" d="M44.7,41.9h-1.4c-0.2,0-0.4-0.2-0.4-0.4v-1.4c0-0.2,0.2-0.4,0.4-0.4h1.4c0.2,0,0.4,0.2,0.4,0.4
				v1.4C45.2,41.7,45,41.9,44.7,41.9z"/><linearGradient id="s" x1="43.093" x2="50.914" y1="36.448" y2="44.269" gradientUnits="userSpaceOnUse"><stop offset="0" stop-color="#eef4ff"/><stop offset="1" stop-color="#d1dae8"/></linearGradient><path fill="url(#s)" d="M48.1,41.9h-1.4c-0.2,0-0.4-0.2-0.4-0.4v-1.4c0-0.2,0.2-0.4,0.4-0.4h1.4c0.2,0,0.4,0.2,0.4,0.4
				v1.4C48.6,41.7,48.4,41.9,48.1,41.9z"/><linearGradient id="t" x1="44.798" x2="52.62" y1="34.742" y2="42.564" gradientUnits="userSpaceOnUse"><stop offset="0" stop-color="#eef4ff"/><stop offset="1" stop-color="#d1dae8"/></linearGradient><path fill="url(#t)" d="M51.6,41.9h-1.4c-0.2,0-0.4-0.2-0.4-0.4v-1.4c0-0.2,0.2-0.4,0.4-0.4h1.4c0.2,0,0.4,0.2,0.4,0.4
				v1.4C52,41.7,51.8,41.9,51.6,41.9z"/><g><linearGradient id="u" x1="37.958" x2="45.779" y1="41.583" y2="49.404" gradientUnits="userSpaceOnUse"><stop offset="0" stop-color="#eef4ff"/><stop offset="1" stop-color="#d1dae8"/></linearGradient><path fill="url(#u)" d="M41.3,45.4h-1.4c-0.2,0-0.4-0.2-0.4-0.4v-1.4c0-0.2,0.2-0.4,0.4-0.4h1.4c0.2,0,0.4,0.2,0.4,0.4
				v1.4C41.7,45.2,41.6,45.4,41.3,45.4z"/><linearGradient id="v" x1="39.663" x2="47.484" y1="39.877" y2="47.699" gradientUnits="userSpaceOnUse"><stop offset="0" stop-color="#eef4ff"/><stop offset="1" stop-color="#d1dae8"/></linearGradient><path fill="url(#v)" d="M44.7,45.4h-1.4c-0.2,0-0.4-0.2-0.4-0.4v-1.4c0-0.2,0.2-0.4,0.4-0.4h1.4c0.2,0,0.4,0.2,0.4,0.4
				v1.4C45.2,45.2,45,45.4,44.7,45.4z"/><linearGradient id="w" x1="41.368" x2="49.19" y1="38.172" y2="45.993" gradientUnits="userSpaceOnUse"><stop offset="0" stop-color="#eef4ff"/><stop offset="1" stop-color="#d1dae8"/></linearGradient><path fill="url(#w)" d="M48.1,45.4h-1.4c-0.2,0-0.4-0.2-0.4-0.4v-1.4c0-0.2,0.2-0.4,0.4-0.4h1.4c0.2,0,0.4,0.2,0.4,0.4
				v1.4C48.6,45.2,48.4,45.4,48.1,45.4z"/><linearGradient id="x" x1="43.074" x2="50.895" y1="36.467" y2="44.288" gradientUnits="userSpaceOnUse"><stop offset="0" stop-color="#eef4ff"/><stop offset="1" stop-color="#d1dae8"/></linearGradient><path fill="url(#x)" d="M51.6,45.4h-1.4c-0.2,0-0.4-0.2-0.4-0.4v-1.4c0-0.2,0.2-0.4,0.4-0.4h1.4c0.2,0,0.4,0.2,0.4,0.4
				v1.4C52,45.2,51.8,45.4,51.6,45.4z"/></g><g><linearGradient id="y" x1="36.233" x2="44.055" y1="43.307" y2="51.129" gradientUnits="userSpaceOnUse"><stop offset="0" stop-color="#eef4ff"/><stop offset="1" stop-color="#d1dae8"/></linearGradient><path fill="url(#y)" d="M41.3,48.8h-1.4c-0.2,0-0.4-0.2-0.4-0.4V47c0-0.2,0.2-0.4,0.4-0.4h1.4c0.2,0,0.4,0.2,0.4,0.4v1.4
				C41.7,48.6,41.6,48.8,41.3,48.8z"/><linearGradient id="z" x1="37.939" x2="45.76" y1="41.602" y2="49.423" gradientUnits="userSpaceOnUse"><stop offset="0" stop-color="#eef4ff"/><stop offset="1" stop-color="#d1dae8"/></linearGradient><path fill="url(#z)" d="M44.7,48.8h-1.4c-0.2,0-0.4-0.2-0.4-0.4V47c0-0.2,0.2-0.4,0.4-0.4h1.4c0.2,0,0.4,0.2,0.4,0.4v1.4
				C45.2,48.6,45,48.8,44.7,48.8z"/><linearGradient id="A" x1="39.644" x2="47.466" y1="39.896" y2="47.718" gradientUnits="userSpaceOnUse"><stop offset="0" stop-color="#eef4ff"/><stop offset="1" stop-color="#d1dae8"/></linearGradient><path fill="url(#A)" d="M48.1,48.8h-1.4c-0.2,0-0.4-0.2-0.4-0.4V47c0-0.2,0.2-0.4,0.4-0.4h1.4c0.2,0,0.4,0.2,0.4,0.4v1.4
				C48.6,48.6,48.4,48.8,48.1,48.8z"/></g><g><linearGradient id="B" x1="34.509" x2="42.331" y1="45.031" y2="52.853" gradientUnits="userSpaceOnUse"><stop offset="0" stop-color="#eef4ff"/><stop offset="1" stop-color="#d1dae8"/></linearGradient><path fill="url(#B)" d="M41.3,52.3h-1.4c-0.2,0-0.4-0.2-0.4-0.4v-1.4c0-0.2,0.2-0.4,0.4-0.4h1.4c0.2,0,0.4,0.2,0.4,0.4
				v1.4C41.7,52.1,41.6,52.3,41.3,52.3z"/><linearGradient id="C" x1="36.215" x2="44.036" y1="43.326" y2="51.147" gradientUnits="userSpaceOnUse"><stop offset="0" stop-color="#eef4ff"/><stop offset="1" stop-color="#d1dae8"/></linearGradient><path fill="url(#C)" d="M44.7,52.3h-1.4c-0.2,0-0.4-0.2-0.4-0.4v-1.4c0-0.2,0.2-0.4,0.4-0.4h1.4c0.2,0,0.4,0.2,0.4,0.4
				v1.4C45.2,52.1,45,52.3,44.7,52.3z"/><linearGradient id="D" x1="37.92" x2="45.742" y1="41.62" y2="49.442" gradientUnits="userSpaceOnUse"><stop offset="0" stop-color="#eef4ff"/><stop offset="1" stop-color="#d1dae8"/></linearGradient><path fill="url(#D)" d="M48.1,52.3h-1.4c-0.2,0-0.4-0.2-0.4-0.4v-1.4c0-0.2,0.2-0.4,0.4-0.4h1.4c0.2,0,0.4,0.2,0.4,0.4
				v1.4C48.6,52.1,48.4,52.3,48.1,52.3z"/><linearGradient id="E" x1="30.039" x2="44.544" y1="28.605" y2="43.109" gradientUnits="userSpaceOnUse"><stop offset="0" stop-color="#eef4ff"/><stop offset="1" stop-color="#d1dae8"/></linearGradient><path fill="url(#E)" d="M51.6,52.3h-1.4c-0.2,0-0.4-0.2-0.4-0.4V47c0-0.2,0.2-0.4,0.4-0.4h1.4c0.2,0,0.4,0.2,0.4,0.4v4.9
				C52,52.1,51.8,52.3,51.6,52.3z"/></g></g><g><linearGradient id="F" x1="-1011.207" x2="-1011.207" y1="-234.702" y2="-231.748" gradientTransform="matrix(-.8445 -.5356 -.5356 .8444 -943.256 -296.721)" gradientUnits="userSpaceOnUse"><stop offset="0" stop-color="#faa34d"/><stop offset="1" stop-color="#ef7b1b"/></linearGradient><path fill="url(#F)" d="M31.1,48.2c-1,1.5-1,3.5-0.1,4.8l-0.1,0.2l0.8,0.5c0.1,0.1,0.2,0.1,0.2,0.2l0,0
				c1.6,0.9,3.9,0.4,5.3-1.7c1.4-2.2,0.9-4.5-0.7-5.5l-0.3-0.2L35.5,46l-0.1,0.2C33.8,45.8,32,46.7,31.1,48.2z"/><linearGradient id="G" x1="-1012.284" x2="-1008.217" y1="-234.126" y2="-227.267" gradientTransform="matrix(-.8445 -.5356 -.5356 .8444 -943.256 -296.721)" gradientUnits="userSpaceOnUse"><stop offset="0" stop-color="#faa34d"/><stop offset="1" stop-color="#ef7b1b"/></linearGradient><path fill="url(#G)" d="M30.2,47.7c-1,1.6-1,3.8,0.2,5.1c1.5,1.7,4.4,1.4,6-1.2c1.6-2.5,0.6-5.3-1.5-5.9
				C33.2,45.1,31.2,46.1,30.2,47.7z"/><linearGradient id="H" x1="-1007.817" x2="-1011.988" y1="-228.716" y2="-232.559" gradientTransform="matrix(-.8445 -.5356 -.5356 .8444 -943.256 -296.721)" gradientUnits="userSpaceOnUse"><stop offset="0" stop-color="#faa34d"/><stop offset="1" stop-color="#ef7b1b"/></linearGradient><path fill="url(#H)" d="M33,52.6c2-0.4,3.4-2.5,2.9-4.5c-0.5-1.7-2.1-2.3-3.6-1.6C30.9,47.1,30,48.6,30,50
				C30.1,51.7,31.3,52.9,33,52.6z"/><g><linearGradient id="I" x1="112.625" x2="114.328" y1="-168.244" y2="-168.244" gradientTransform="matrix(.8044 .3842 -.3808 .9213 -122.398 160.828)" gradientUnits="userSpaceOnUse"><stop offset="0" stop-color="#e6edf5"/><stop offset="1" stop-color="#c6d3e0"/></linearGradient><path fill="url(#I)" d="M33.6,48c0.1,0,0.2,0.1,0.3,0.2c0.1,0.1,0.1,0.1,0.1,0.2c0,0.1,0,0.1,0,0.2c0,0.1,0,0.1-0.1,0.2
				c0,0.1-0.1,0.2-0.2,0.2c-0.1,0-0.2,0-0.2,0c0-0.1,0.1-0.1,0.1-0.2c0-0.1,0-0.1,0-0.2c0-0.1,0-0.1,0-0.2c0-0.1-0.1-0.1-0.1-0.1
				l-0.4,1c0.1,0.1,0.1,0.2,0.2,0.3c0.1,0.1,0.1,0.2,0.1,0.3c0,0.1,0,0.2,0,0.3c0,0.1,0,0.2-0.1,0.3c-0.1,0.2-0.2,0.3-0.4,0.4
				c-0.2,0.1-0.3,0-0.5,0l-0.2,0.5l-0.2-0.1l0.2-0.4c-0.1,0-0.1-0.1-0.1-0.1c0,0-0.1-0.1-0.1-0.1c0,0-0.1-0.1-0.1-0.1
				c0,0-0.1-0.1-0.1-0.1l0.2-0.6l0.1,0.1c0,0.1,0,0.2-0.1,0.2c0,0.1,0,0.2,0,0.2c0,0.1,0,0.1,0.1,0.2c0,0.1,0.1,0.1,0.2,0.2l0.4-1
				c-0.1-0.1-0.1-0.2-0.2-0.3c0-0.1-0.1-0.2-0.1-0.3c0-0.1,0-0.2,0-0.3c0-0.1,0-0.2,0.1-0.3c0-0.1,0.1-0.2,0.1-0.3
				c0.1-0.1,0.1-0.1,0.2-0.2c0.1,0,0.2-0.1,0.2-0.1c0.1,0,0.2,0,0.3,0l0.2-0.4l0.2,0.1L33.6,48z M32.9,48.5c0,0.1,0,0.1,0,0.2
				c0,0.1,0,0.1,0,0.1c0,0,0,0.1,0,0.1c0,0,0,0.1,0.1,0.1l0.4-0.9c-0.1,0-0.1,0-0.1,0c0,0-0.1,0-0.1,0.1c0,0-0.1,0.1-0.1,0.1
				C32.9,48.4,32.9,48.5,32.9,48.5z M33,50.3c0-0.1,0-0.1,0-0.2c0,0,0-0.1,0-0.1c0-0.1,0-0.1-0.1-0.2c0-0.1-0.1-0.1-0.1-0.2
				l-0.4,0.9c0.1,0,0.2,0,0.3,0C32.9,50.5,33,50.4,33,50.3z"/></g></g><g><linearGradient id="J" x1="-1010.897" x2="-1010.897" y1="-270.108" y2="-268.304" gradientTransform="matrix(-.8445 -.5356 -.5356 .8444 -943.256 -296.721)" gradientUnits="userSpaceOnUse"><stop offset="0" stop-color="#9bf"/><stop offset="1" stop-color="#5a88f9"/></linearGradient><path fill="url(#J)" d="M51.8,17.6c-0.6,0.9-0.6,2.1,0,2.9l-0.1,0.1l0.5,0.3c0,0,0.1,0.1,0.2,0.1l0,0
				c1,0.6,2.4,0.3,3.2-1.1c0.8-1.3,0.5-2.7-0.4-3.4L55,16.5l-0.5-0.3l-0.1,0.1C53.5,16.1,52.4,16.7,51.8,17.6z"/><linearGradient id="K" x1="-1011.554" x2="-1009.072" y1="-269.756" y2="-265.569" gradientTransform="matrix(-.8445 -.5356 -.5356 .8444 -943.256 -296.721)" gradientUnits="userSpaceOnUse"><stop offset="0" stop-color="#9bf"/><stop offset="1" stop-color="#5a88f9"/></linearGradient><path fill="url(#K)" d="M51.3,17.2c-0.6,1-0.6,2.3,0.1,3.1c0.9,1,2.7,0.8,3.7-0.7c1-1.5,0.4-3.2-0.9-3.6
				C53.1,15.7,51.9,16.3,51.3,17.2z"/><linearGradient id="L" x1="-1008.827" x2="-1011.373" y1="-266.453" y2="-268.799" gradientTransform="matrix(-.8445 -.5356 -.5356 .8444 -943.256 -296.721)" gradientUnits="userSpaceOnUse"><stop offset="0" stop-color="#9bf"/><stop offset="1" stop-color="#5a88f9"/></linearGradient><path fill="url(#L)" d="M53,20.3c1.2-0.2,2.1-1.5,1.7-2.7c-0.3-1-1.3-1.4-2.2-1c-0.8,0.4-1.4,1.3-1.4,2.1
				C51.2,19.7,52,20.5,53,20.3z"/><g><linearGradient id="M" x1="120.401" x2="121.441" y1="-205.121" y2="-205.121" gradientTransform="matrix(.8044 .3842 -.3808 .9213 -122.398 160.828)" gradientUnits="userSpaceOnUse"><stop offset="0" stop-color="#e6edf5"/><stop offset="1" stop-color="#c6d3e0"/></linearGradient><path fill="url(#M)" d="M53.4,17.5c0.1,0,0.1,0.1,0.2,0.1c0,0,0.1,0.1,0.1,0.1c0,0,0,0.1,0,0.1c0,0,0,0.1,0,0.1
				c0,0.1-0.1,0.1-0.1,0.1c0,0-0.1,0-0.1,0c0,0,0-0.1,0-0.1c0,0,0-0.1,0-0.1c0,0,0-0.1,0-0.1c0,0,0-0.1-0.1-0.1l-0.3,0.6
				c0,0.1,0.1,0.1,0.1,0.2c0,0.1,0.1,0.1,0.1,0.2c0,0.1,0,0.1,0,0.2c0,0.1,0,0.1,0,0.2c-0.1,0.1-0.1,0.2-0.2,0.2c-0.1,0-0.2,0-0.3,0
				l-0.1,0.3l-0.1-0.1l0.1-0.3c0,0-0.1,0-0.1-0.1c0,0-0.1,0-0.1-0.1c0,0-0.1,0-0.1-0.1c0,0,0-0.1-0.1-0.1l0.1-0.4l0.1,0
				c0,0,0,0.1,0,0.1c0,0,0,0.1,0,0.1c0,0,0,0.1,0.1,0.1c0,0,0.1,0.1,0.1,0.1l0.3-0.6c0-0.1-0.1-0.1-0.1-0.2c0-0.1,0-0.1-0.1-0.2
				c0-0.1,0-0.1,0-0.2c0-0.1,0-0.1,0-0.2c0-0.1,0.1-0.1,0.1-0.2c0,0,0.1-0.1,0.1-0.1c0,0,0.1,0,0.1,0c0.1,0,0.1,0,0.2,0l0.1-0.2
				l0.1,0L53.4,17.5z M52.9,17.8c0,0,0,0.1,0,0.1c0,0,0,0.1,0,0.1c0,0,0,0.1,0,0.1c0,0,0,0.1,0,0.1l0.2-0.6c0,0-0.1,0-0.1,0
				c0,0-0.1,0-0.1,0C53,17.6,53,17.6,52.9,17.8C53,17.7,53,17.7,52.9,17.8z M53,18.9C53,18.8,53.1,18.8,53,18.9c0-0.1,0-0.2,0-0.2
				c0,0,0-0.1,0-0.1c0,0,0-0.1-0.1-0.1L52.7,19c0.1,0,0.1,0,0.2,0C53,19,53,18.9,53,18.9z"/></g></g><g><linearGradient id="N" x1="1356.07" x2="1367.517" y1="26.69" y2="26.69" gradientTransform="translate(-1311.055)" gradientUnits="userSpaceOnUse"><stop offset="0" stop-color="#f099dd"/><stop offset="1" stop-color="#d34ac0"/></linearGradient><path fill="url(#N)" d="M45,26.1v3.3c0,0.6,0.7,1,1.2,0.6l1.2-0.8c0.3-0.2,0.6-0.3,0.9-0.3h5.2c1.5,0,2.9-1.1,3-2.7
			c0.1-0.9-0.3-1.7-0.8-2.2c-0.5-0.5-1.2-0.8-2-0.8h-5.7C46.3,23.2,45,24.5,45,26.1z"/><path fill="#FFF" d="M48.4,25.5c0,0.3-0.1,0.5-0.2,0.7c-0.1,0.2-0.3,0.2-0.5,0.2c-0.2,0-0.4-0.1-0.5-0.2
					c-0.1-0.2-0.2-0.4-0.2-0.7c0-0.6,0.2-0.9,0.6-0.9c0.2,0,0.4,0.1,0.5,0.2C48.4,25,48.4,25.2,48.4,25.5z M47.5,25.5
					c0,0.2,0,0.3,0.1,0.4c0,0.1,0.1,0.1,0.2,0.1c0.2,0,0.3-0.2,0.3-0.6c0-0.4-0.1-0.6-0.3-0.6c-0.1,0-0.2,0-0.2,0.1
					C47.6,25.2,47.5,25.3,47.5,25.5z M49.8,24.6l-1.6,2.9h-0.4l1.6-2.9H49.8z M50.4,26.7c0,0.3-0.1,0.5-0.2,0.7
					c-0.1,0.2-0.3,0.2-0.5,0.2c-0.2,0-0.4-0.1-0.5-0.2s-0.2-0.4-0.2-0.7c0-0.6,0.2-0.9,0.6-0.9c0.2,0,0.4,0.1,0.5,0.2
					C50.3,26.2,50.4,26.4,50.4,26.7z M49.5,26.7c0,0.2,0,0.3,0.1,0.4c0,0.1,0.1,0.1,0.2,0.1c0.2,0,0.3-0.2,0.3-0.6
					c0-0.4-0.1-0.6-0.3-0.6c-0.1,0-0.2,0-0.2,0.1C49.5,26.3,49.5,26.5,49.5,26.7z"/><rect width="2.9" height=".4" x="51.4" y="25.1" fill="#FFF"/><rect width="2.9" height=".4" x="51.4" y="25.9" fill="#FFF"/><rect width="1.8" height=".4" x="51.4" y="26.8" fill="#FFF"/></g><g><linearGradient id="O" x1="-615.256" x2="-618.481" y1="47.945" y2="42.559" gradientTransform="translate(633.802)" gradientUnits="userSpaceOnUse"><stop offset="0" stop-color="#416d99"/><stop offset="1" stop-color="#244d77"/></linearGradient><path fill="url(#O)" d="M14.5,52.6c0,0,2.1-2.8,4.3-5.7c0.3-0.4,0.6-0.7,0.7-1c0.2-0.3,0.2-0.5,0.2-0.7
				c0-0.1-0.1-0.2-0.2-0.5c-0.1-0.2-0.4-0.5-0.5-0.8c-0.8-1.2-1.3-2.1-1.4-2.2c-0.4-0.8-0.3-2.2,0.5-2.6c0.8-0.5,2,0.2,2.4,1
				c0.1,0.2,0.5,1.1,1.1,2.4c0.1,0.3,0.3,0.7,0.5,1.2c0.2,0.5,0.4,1.2,0.2,2c-0.2,0.7-0.5,1.3-0.9,1.7c-0.4,0.4-0.7,0.7-1,1
				c-2.7,2.5-5.3,4.8-5.3,4.8L14.5,52.6z"/><linearGradient id="P" x1="-619.752" x2="-618.112" y1="53.401" y2="53.401" gradientTransform="translate(633.802)" gradientUnits="userSpaceOnUse"><stop offset="0" stop-color="#416d99"/><stop offset="1" stop-color="#244d77"/></linearGradient><path fill="url(#P)" d="M14.5,52.6l-0.4,0.2c-0.1,0.1-0.1,0.2,0,0.3l1.2,1.1c0.2,0.2,0.4,0,0.3-0.3l-0.5-0.8L14.5,52.6z"/><linearGradient id="Q" x1="-609.962" x2="-611.223" y1="33.241" y2="34.516" gradientTransform="translate(633.802)" gradientUnits="userSpaceOnUse"><stop offset="0" stop-color="#f9c7a5"/><stop offset="1" stop-color="#f9a395"/></linearGradient><path fill="url(#Q)" d="M23.1,35.1l2.5-2.8c1.3-0.2-0.1-1.1-0.6-0.6L22,34L23.1,35.1z"/><linearGradient id="R" x1="-611.438" x2="-613.348" y1="33.871" y2="33.659" gradientTransform="translate(633.802)" gradientUnits="userSpaceOnUse"><stop offset="0" stop-color="#ee6b6b"/><stop offset="1" stop-color="#c43737"/></linearGradient><path fill="url(#R)" d="M20.3,31.7c0,0,1.1,2.6,1.1,2.7c0.1,0,0.1,0,0.2,0c0,0,0.1,0,0.1-0.1l0.3-0.3l1,1l-0.3,0.3
				c-0.1,0.2-0.3,0.4-0.5,0.5c-0.4,0.3-0.8,0.5-1.3,0.4c-0.5-0.1-0.9-0.4-1.2-0.9l-0.4-0.6l-0.3-0.4l-1-1.6
				C17.6,31.3,19.6,30.3,20.3,31.7z"/><linearGradient id="S" x1="-616.654" x2="-617.019" y1="39.676" y2="50.715" gradientTransform="translate(633.802)" gradientUnits="userSpaceOnUse"><stop offset="0" stop-color="#416d99"/><stop offset="1" stop-color="#244d77"/></linearGradient><path fill="url(#S)" d="M16.5,53.9c0,0-1.1-12.8-1.1-13.5c0-0.8,0.8-1.8,1.7-1.8c0.9,0,1.7,1.1,1.7,1.9
				c0,0.7-1.4,13.5-1.4,13.5L16.5,53.9z"/><linearGradient id="T" x1="-617.426" x2="-615.348" y1="54.225" y2="54.225" gradientTransform="translate(633.802)" gradientUnits="userSpaceOnUse"><stop offset="0" stop-color="#416d99"/><stop offset="1" stop-color="#244d77"/></linearGradient><path fill="url(#T)" d="M16.5,53.9l-0.2,0.3c-0.1,0.1,0.1,0.2,0.2,0.3l1.6,0c0.3,0,0.3-0.3,0.1-0.4l-0.9-0.2L16.5,53.9z"/><linearGradient id="U" x1="-615.895" x2="-615.895" y1="32.91" y2="36.071" gradientTransform="translate(633.802)" gradientUnits="userSpaceOnUse"><stop offset="0" stop-color="#ee6b6b"/><stop offset="1" stop-color="#c43737"/></linearGradient><path fill="url(#U)" d="M20.4,39.6c0.1,1.2-5.1,1.4-5.1,0.2c0-1.2-0.9-7.5,1-9.1c0.5-0.4,1.8-0.8,2.8-0.3
					C22.1,32,19.9,34.5,20.4,39.6z"/><linearGradient id="V" x1="-617.697" x2="-617.033" y1="40.128" y2="41.043" gradientTransform="translate(633.802)" gradientUnits="userSpaceOnUse"><stop offset="0" stop-color="#f9c7a5"/><stop offset="1" stop-color="#f9a395"/></linearGradient><path fill="url(#V)" d="M13,36.9c0,0.1,0.8,1.1,1.5,2.1c0.7,1,1.5,2,1.5,2c-0.1,1.4,1.1,0.1,0.7-0.4c0,0-0.6-1.1-1.2-2.2
				c-0.6-1.1-1.2-2.2-1.1-2.2L13,36.9z"/><path fill="#EE6B6B" d="M17.4,32.7c0,0-1,1-2,2.1c-0.2,0.3-0.5,0.5-0.7,0.8c-0.2,0.3-0.3,0.4-0.4,0.4c0,0.1,0,0.2,0,0.2
				c0,0.1,0,0.1,0,0.1L13.1,37c0,0-0.1-0.1-0.2-0.3c-0.1-0.2-0.2-0.6-0.1-1.1c0.1-0.5,0.4-0.9,0.5-1.1c0.2-0.3,0.4-0.6,0.6-0.9
				c0.8-1.2,1.7-2.3,1.7-2.3C16.6,30.1,18.5,31.4,17.4,32.7z"/><linearGradient id="W" x1="-614.711" x2="-614.833" y1="29.307" y2="27.733" gradientTransform="translate(633.802)" gradientUnits="userSpaceOnUse"><stop offset="0" stop-color="#f9c7a5"/><stop offset="1" stop-color="#f9a395"/></linearGradient><path fill="url(#W)" d="M20.2,27.7l-2.3-0.2l-0.1,2.7c0.8,1,2.2,0.9,1.4,0.1l0-0.4l0.2,0c0.6,0,1-0.4,1-0.8L20.2,27.7z"/><linearGradient id="X" x1="-616.445" x2="-611.524" y1="27.566" y2="27.566" gradientTransform="translate(633.802)" gradientUnits="userSpaceOnUse"><stop offset="0" stop-color="#416d99"/><stop offset="1" stop-color="#244d77"/></linearGradient><path fill="url(#X)" d="M17.5,26.9c-0.3,0.7,0,1.6,0.3,2.3c0,0.1,0.1,0.2,0.1,0.2c0.1,0.1,0.2,0.1,0.3,0.1
			c0.1,0,0.1-0.1,0.2-0.2c0.3-0.4-0.1-1.5,0.4-1.4c0.4,0,0,0.9,0.5,1c0.3-0.1,0.1-0.8,0.8-0.7c0.3,0,0.5,0.1,0.8,0.1
			c0.3,0.1,0.5,0.1,0.8,0.1c0.4-0.1,0.7-0.4,0.7-0.8s-0.2-0.7-0.4-1c-0.5-0.6-1.5-1-2.3-1C18.6,25.7,17.8,26.2,17.5,26.9z"/><linearGradient id="Y" x1="745.617" x2="744.981" y1="-432.006" y2="-431.363" gradientTransform="matrix(.6799 .4049 -.5116 .8592 -702.04 100.74)" gradientUnits="userSpaceOnUse"><stop offset="0" stop-color="#416d99"/><stop offset="1" stop-color="#244d77"/></linearGradient><path fill="url(#Y)" d="M26.8,30.4l-0.6-0.1c-0.1,0-0.2,0.1-0.3,0.2l-0.7,1.2c-0.1,0.1-0.1,0.3,0,0.3l0.4,0.5
			c0.1,0.1,0.2,0.1,0.3-0.1l1-1.6C27,30.6,27,30.4,26.8,30.4z"/></g></svg>